<svg width="50" height="51" viewBox="0 0 50 51" fill="none" xmlns="http://www.w3.org/2000/svg">
<g clip-path="url(#clip0_402_253)">
<path d="M25 50.3016C38.8071 50.3016 50 39.1088 50 25.3016C50 11.4945 38.8071 0.301636 25 0.301636C11.1929 0.301636 0 11.4945 0 25.3016C0 39.1088 11.1929 50.3016 25 50.3016Z" fill="#6DA544"/>
<path d="M25 10.0842L45.6521 25.3016L25 40.519L4.34784 25.3016L25 10.0842Z" fill="#FFDA44"/>
<path d="M25 33.9972C29.8024 33.9972 33.6956 30.1041 33.6956 25.3016C33.6956 20.4992 29.8024 16.606 25 16.606C20.1975 16.606 16.3044 20.4992 16.3044 25.3016C16.3044 30.1041 20.1975 33.9972 25 33.9972Z" fill="#F0F0F0"/>
<path d="M20.6521 24.7582C19.14 24.7582 17.6808 24.9882 16.3071 25.4149C16.368 30.1649 20.2355 33.9973 25 33.9973C27.9461 33.9973 30.548 32.5308 32.121 30.2895C29.4299 26.9207 25.2892 24.7582 20.6521 24.7582Z" fill="#0052B4"/>
<path d="M33.5345 26.9676C33.6392 26.4282 33.6957 25.8716 33.6957 25.3016C33.6957 20.4991 29.8025 16.606 25.0001 16.606C21.4167 16.606 18.3405 18.7741 17.0093 21.8696C18.186 21.6257 19.4044 21.4973 20.6523 21.4973C25.7028 21.4972 30.2718 23.5966 33.5345 26.9676Z" fill="#0052B4"/>
</g>
<defs>
<clipPath id="clip0_402_253">
<rect width="50" height="50" fill="white" transform="translate(0 0.301636)"/>
</clipPath>
</defs>
</svg>
